<?xml version="1.0" encoding="UTF-8"?>
<!DOCTYPE svg PUBLIC "-//W3C//DTD SVG 1.1//EN" "http://www.w3.org/Graphics/SVG/1.1/DTD/svg11.dtd">
<svg xmlns="http://www.w3.org/2000/svg" version="1.1" width="500px" height="500px" style="shape-rendering:geometricPrecision; text-rendering:geometricPrecision; image-rendering:optimizeQuality; fill-rule:evenodd; clip-rule:evenodd" xmlns:xlink="http://www.w3.org/1999/xlink">
<g><path style="opacity:1" fill="#f0eee6" d="M -0.5,-0.5 C 166.167,-0.5 332.833,-0.5 499.5,-0.5C 499.5,166.167 499.5,332.833 499.5,499.5C 332.833,499.5 166.167,499.5 -0.5,499.5C -0.5,332.833 -0.5,166.167 -0.5,-0.5 Z"/></g>
<g><path style="opacity:1" fill="#070706" d="M 141.5,228.5 C 147.572,227.777 153.072,229.111 158,232.5C 158.483,231.552 158.649,230.552 158.5,229.5C 162.5,229.5 166.5,229.5 170.5,229.5C 170.95,244.239 170.45,258.905 169,273.5C 164.341,280.622 157.675,283.955 149,283.5C 141.326,283.582 135.493,280.415 131.5,274C 134.137,271.676 137.137,269.843 140.5,268.5C 146.298,273.803 152.131,273.803 158,268.5C 158.667,266.5 158.667,264.5 158,262.5C 142.174,269.012 132.674,263.846 129.5,247C 130.378,238.729 134.378,232.562 141.5,228.5 Z"/></g>
<g><path style="opacity:1" fill="#050505" d="M 190.5,228.5 C 200.189,226.919 206.689,230.585 210,239.5C 217.005,229.165 226.505,225.998 238.5,230C 251.711,237.362 254.044,247.362 245.5,260C 232.957,268.315 221.457,267.148 211,256.5C 210.503,259.146 210.336,261.813 210.5,264.5C 206.5,264.5 202.5,264.5 198.5,264.5C 198.666,257.159 198.5,249.826 198,242.5C 193.667,235.833 189.333,235.833 185,242.5C 184.5,249.826 184.334,257.159 184.5,264.5C 180.5,264.5 176.5,264.5 172.5,264.5C 172.5,252.833 172.5,241.167 172.5,229.5C 176.5,229.5 180.5,229.5 184.5,229.5C 184.281,230.675 184.614,231.675 185.5,232.5C 187.419,231.388 189.086,230.054 190.5,228.5 Z"/></g>
<g><path style="opacity:1" fill="#060606" d="M 276.5,228.5 C 282.605,227.651 288.105,228.984 293,232.5C 293.483,231.552 293.649,230.552 293.5,229.5C 297.5,229.5 301.5,229.5 305.5,229.5C 305.5,241.167 305.5,252.833 305.5,264.5C 301.5,264.5 297.5,264.5 293.5,264.5C 293.649,263.448 293.483,262.448 293,261.5C 282.643,268.137 273.976,266.47 267,256.5C 262.103,244.358 265.269,235.024 276.5,228.5 Z"/></g>
<g><path style="opacity:1" fill="#050504" d="M 325.5,228.5 C 332.208,227.274 337.708,229.274 342,234.5C 347.904,228.028 354.738,226.861 362.5,231C 364.617,232.731 366.117,234.898 367,237.5C 367.5,246.494 367.666,255.494 367.5,264.5C 363.5,264.5 359.5,264.5 355.5,264.5C 355.666,256.826 355.5,249.159 355,241.5C 352.441,238.651 349.274,237.817 345.5,239C 344.874,239.75 344.374,240.584 344,241.5C 343.5,249.159 343.334,256.826 343.5,264.5C 339.5,264.5 335.5,264.5 331.5,264.5C 331.666,256.826 331.5,249.159 331,241.5C 327.287,237.513 323.62,237.513 320,241.5C 319.5,249.159 319.334,256.826 319.5,264.5C 315.5,264.5 311.5,264.5 307.5,264.5C 307.5,252.833 307.5,241.167 307.5,229.5C 311.5,229.5 315.5,229.5 319.5,229.5C 319.281,230.675 319.614,231.675 320.5,232.5C 322.419,231.388 324.086,230.054 325.5,228.5 Z"/></g>
<g><path style="opacity:1" fill="#e5e3dc" d="M 147.5,238.5 C 156.705,238.206 160.205,242.54 158,251.5C 152.042,257.339 147.042,256.672 143,249.5C 142.333,247.5 142.333,245.5 143,243.5C 144.707,241.963 146.207,240.296 147.5,238.5 Z"/></g>
<g><path style="opacity:1" fill="#e5e3dc" d="M 226.5,238.5 C 235.705,238.206 239.205,242.54 237,251.5C 231.042,257.339 226.042,256.672 222,249.5C 221.333,247.5 221.333,245.5 222,243.5C 223.707,241.963 225.207,240.296 226.5,238.5 Z"/></g>
<g><path style="opacity:1" fill="#e5e3dc" d="M 282.5,238.5 C 291.705,238.206 295.205,242.54 293,251.5C 287.042,257.339 282.042,256.672 278,249.5C 277.333,247.5 277.333,245.5 278,243.5C 279.707,241.963 281.207,240.296 282.5,238.5 Z"/></g>
<g><path style="opacity:1" fill="#070707" d="M 253.5,250.5 C 257.257,250.071 260.757,250.737 264,252.5C 267.215,261.58 264.048,265.747 254.5,265C 249.507,260.531 249.173,255.698 253.5,250.5 Z"/></g>
</svg>
